<?xml version="1.0" standalone="no"?>
<!DOCTYPE svg PUBLIC "-//W3C//DTD SVG 20010904//EN"
 "http://www.w3.org/TR/2001/REC-SVG-20010904/DTD/svg10.dtd">
<svg version="1.0" xmlns="http://www.w3.org/2000/svg"
 width="79.000000pt" height="79.000000pt" viewBox="0 0 79.000000 79.000000"
 preserveAspectRatio="xMidYMid meet">
<metadata>
Created by potrace 1.11, written by Peter Selinger 2001-2013
</metadata>
<g transform="translate(0.000000,79.000000) scale(0.100000,-0.100000)"
fill="#000000" stroke="none">
<path d="M314 708 c-3 -4 -14 -8 -25 -8 -10 0 -19 -4 -19 -10 0 -5 -5 -10 -11
-10 -13 0 -45 -32 -86 -87 -15 -21 -39 -49 -54 -63 -40 -40 -66 -105 -70 -180
-1 -19 -6 -40 -11 -47 -5 -7 -5 -14 2 -18 7 -4 8 -11 2 -18 -6 -8 -2 -23 10
-42 11 -16 17 -22 14 -11 -4 10 -2 24 3 30 5 6 10 13 10 16 8 35 15 50 22 50
5 0 9 7 9 15 0 8 7 15 15 15 8 0 15 7 15 15 0 13 4 14 20 5 11 -6 20 -15 20
-21 0 -29 113 -110 143 -101 4 1 7 -2 7 -7 0 -5 11 -8 25 -8 16 0 22 4 18 11
-5 8 -3 8 8 0 18 -13 59 -16 59 -4 0 5 6 7 14 4 8 -3 29 3 48 12 18 10 37 17
41 16 5 -1 6 2 2 8 -3 5 -3 10 2 10 15 0 65 49 59 58 -3 6 2 13 11 17 10 3 19
1 21 -4 2 -6 10 -11 17 -11 8 0 17 -9 20 -20 3 -11 11 -20 17 -20 5 0 8 -7 4
-15 -3 -8 -1 -15 4 -15 6 0 10 -7 10 -15 0 -8 4 -15 9 -15 5 0 12 -10 14 -22
4 -21 4 -21 6 2 0 15 -5 32 -11 39 -11 11 -10 12 0 7 9 -6 12 1 9 27 -2 18 -8
40 -12 47 -5 9 -4 11 3 6 9 -5 9 0 2 18 -5 14 -7 26 -4 26 4 0 1 7 -6 15 -7 8
-9 15 -5 15 4 0 3 6 -3 13 -6 6 -10 14 -10 17 2 15 -15 50 -24 50 -6 0 -9 2
-6 5 3 3 -7 19 -23 35 -16 16 -29 35 -29 42 0 8 -13 27 -30 43 -16 15 -27 33
-23 38 3 6 1 7 -4 4 -6 -4 -16 0 -23 8 -7 8 -16 12 -21 9 -5 -3 -9 -1 -9 4 0
20 -185 39 -196 20z"/>
</g>
</svg>
